<svg xmlns="http://www.w3.org/2000/svg" width="91" height="67" viewBox="0 0 91 67" fill="none">
    <path d="M75.5671 7.93421C66.4857 2.88517 56.2379 0 45.4069 0C34.4926 0 24.2448 2.88517 15.2467 7.93421C-5.08224 19.2344 -5.08224 47.8457 15.2467 59.1459C24.3281 64.195 34.4926 67 45.4069 67C56.2379 67 66.4857 64.195 75.5671 59.1459C95.8127 47.8457 95.8127 19.1543 75.5671 7.93421ZM71.4846 25.9665C71.4846 26.1268 71.4013 26.2069 71.2347 26.2069C67.1522 26.3672 63.9029 29.573 63.9029 33.5801C63.9029 37.5873 67.1522 40.7129 71.2347 40.9534C71.4013 40.9534 71.4846 41.0335 71.4846 41.1938V47.0443C71.4846 47.2045 71.4013 47.3648 71.1514 47.3648H19.1625C18.9959 47.3648 18.8293 47.2847 18.8293 47.0443V41.1938C18.8293 41.0335 18.9126 40.9534 19.0792 40.9534C23.1617 40.7931 26.411 37.5873 26.411 33.5801C26.411 29.573 23.1617 26.4474 19.0792 26.2069C18.9126 26.2069 18.8293 26.1268 18.8293 25.9665V19.555C18.8293 19.3947 18.9126 19.2344 19.1625 19.2344H71.1514C71.318 19.2344 71.4846 19.3146 71.4846 19.555V25.9665Z" fill="#6528F7"/>
</svg>